<svg width="277" height="182" viewBox="0 0 277 182" fill="none" xmlns="http://www.w3.org/2000/svg">
<path d="M42.0479 42.1691C43.3193 43.7344 45.6807 43.7344 46.9521 42.1691L67.7374 16.5786C69.4475 14.4733 67.9728 11.297 65.2853 11.297H23.7147C21.0272 11.297 19.5525 14.4733 21.2626 16.5786L42.0479 42.1691Z" fill="#F5AC00"/>
<path d="M14.3781 52.854H77.1051V70.0264H55.9478V145.903H77.1051V163H14.3781V145.903H35.0138V70.0264H14.3781V52.854Z" fill="#002555"/>
<path d="M88.375 138.555C88.375 135.352 88.7396 132.422 89.4688 129.766C90.224 127.109 91.3177 124.831 92.75 122.93C94.1823 121.029 95.9141 119.557 97.9453 118.516C100.003 117.474 102.346 116.953 104.977 116.953C107.19 116.953 109.13 117.357 110.797 118.164C112.49 118.945 113.987 120.065 115.289 121.523V100H126.188V160H116.383L115.836 155.586C114.508 157.227 112.945 158.503 111.148 159.414C109.352 160.326 107.268 160.781 104.898 160.781C102.32 160.781 100.003 160.247 97.9453 159.18C95.9141 158.086 94.1953 156.589 92.7891 154.688C91.3568 152.786 90.263 150.534 89.5078 147.93C88.7526 145.299 88.375 142.448 88.375 139.375V138.555ZM99.2344 139.375C99.2344 141.146 99.3776 142.799 99.6641 144.336C99.9766 145.846 100.471 147.161 101.148 148.281C101.826 149.427 102.698 150.326 103.766 150.977C104.833 151.628 106.135 151.953 107.672 151.953C109.547 151.953 111.096 151.549 112.32 150.742C113.57 149.935 114.56 148.828 115.289 147.422V130.312C114.56 128.88 113.583 127.773 112.359 126.992C111.135 126.185 109.599 125.781 107.75 125.781C106.214 125.781 104.898 126.12 103.805 126.797C102.737 127.448 101.865 128.346 101.188 129.492C100.51 130.664 100.016 132.031 99.7031 133.594C99.3906 135.13 99.2344 136.784 99.2344 138.555V139.375ZM158.062 160.781C154.807 160.781 151.852 160.247 149.195 159.18C146.539 158.112 144.26 156.654 142.359 154.805C140.458 152.982 138.987 150.833 137.945 148.359C136.93 145.859 136.422 143.19 136.422 140.352V138.789C136.422 135.56 136.93 132.617 137.945 129.961C138.961 127.279 140.38 124.974 142.203 123.047C144.026 121.12 146.188 119.622 148.688 118.555C151.188 117.487 153.909 116.953 156.852 116.953C159.898 116.953 162.607 117.461 164.977 118.477C167.372 119.466 169.404 120.872 171.07 122.695C172.711 124.518 173.961 126.719 174.82 129.297C175.68 131.849 176.109 134.674 176.109 137.773V142.383H147.438V142.5C147.802 144.193 148.271 145.56 148.844 146.602C149.417 147.617 150.185 148.542 151.148 149.375C152.138 150.234 153.271 150.898 154.547 151.367C155.823 151.836 157.216 152.07 158.727 152.07C160.862 152.07 162.932 151.667 164.938 150.859C166.943 150.052 168.57 148.841 169.82 147.227L175.25 153.086C173.87 155.039 171.682 156.81 168.688 158.398C165.693 159.987 162.151 160.781 158.062 160.781ZM156.773 125.742C155.549 125.742 154.43 125.964 153.414 126.406C152.398 126.823 151.513 127.435 150.758 128.242C149.977 129.049 149.326 130.013 148.805 131.133C148.284 132.253 147.893 133.503 147.633 134.883H165.445V134.023C165.445 132.878 165.237 131.797 164.82 130.781C164.404 129.766 163.831 128.88 163.102 128.125C162.372 127.396 161.474 126.823 160.406 126.406C159.365 125.964 158.154 125.742 156.773 125.742ZM212.008 160C211.747 159.479 211.526 158.88 211.344 158.203C211.161 157.526 211.005 156.81 210.875 156.055C210.276 156.706 209.586 157.318 208.805 157.891C208.023 158.464 207.164 158.958 206.227 159.375C205.263 159.818 204.208 160.156 203.062 160.391C201.917 160.651 200.68 160.781 199.352 160.781C197.19 160.781 195.198 160.469 193.375 159.844C191.578 159.219 190.029 158.346 188.727 157.227C187.424 156.107 186.409 154.779 185.68 153.242C184.951 151.68 184.586 149.987 184.586 148.164C184.586 145.82 185.042 143.75 185.953 141.953C186.865 140.13 188.232 138.633 190.055 137.461C191.695 136.393 193.714 135.586 196.109 135.039C198.531 134.466 201.305 134.18 204.43 134.18H210.484V131.68C210.484 130.69 210.328 129.805 210.016 129.023C209.703 128.216 209.234 127.526 208.609 126.953C207.958 126.354 207.138 125.898 206.148 125.586C205.185 125.247 204.052 125.078 202.75 125.078C201.604 125.078 200.615 125.221 199.781 125.508C198.948 125.768 198.271 126.146 197.75 126.641C197.281 127.083 196.93 127.617 196.695 128.242C196.487 128.867 196.383 129.557 196.383 130.312H185.523C185.523 128.516 185.914 126.81 186.695 125.195C187.503 123.581 188.674 122.161 190.211 120.938C191.721 119.714 193.57 118.75 195.758 118.047C197.971 117.318 200.497 116.953 203.336 116.953C205.888 116.953 208.258 117.266 210.445 117.891C212.659 118.516 214.573 119.44 216.188 120.664C217.802 121.888 219.065 123.438 219.977 125.312C220.888 127.161 221.344 129.31 221.344 131.758V149.883C221.344 152.148 221.487 154.023 221.773 155.508C222.06 156.992 222.477 158.268 223.023 159.336V160H212.008ZM201.656 152.383C202.75 152.383 203.766 152.253 204.703 151.992C205.641 151.732 206.487 151.393 207.242 150.977C207.997 150.56 208.648 150.091 209.195 149.57C209.742 149.023 210.172 148.477 210.484 147.93V140.664H204.938C203.245 140.664 201.799 140.833 200.602 141.172C199.404 141.484 198.427 141.927 197.672 142.5C196.917 143.099 196.357 143.815 195.992 144.648C195.628 145.456 195.445 146.341 195.445 147.305C195.445 148.06 195.576 148.763 195.836 149.414C196.122 150.039 196.526 150.573 197.047 151.016C197.568 151.432 198.206 151.771 198.961 152.031C199.742 152.266 200.641 152.383 201.656 152.383ZM260.914 148.398C260.914 147.747 260.758 147.174 260.445 146.68C260.159 146.185 259.638 145.716 258.883 145.273C258.102 144.857 257.073 144.466 255.797 144.102C254.521 143.737 252.906 143.372 250.953 143.008C248.479 142.513 246.214 141.901 244.156 141.172C242.125 140.417 240.38 139.505 238.922 138.438C237.464 137.396 236.318 136.185 235.484 134.805C234.677 133.424 234.273 131.836 234.273 130.039C234.273 128.294 234.69 126.628 235.523 125.039C236.357 123.451 237.555 122.057 239.117 120.859C240.68 119.661 242.581 118.711 244.82 118.008C247.06 117.305 249.586 116.953 252.398 116.953C255.341 116.953 257.984 117.305 260.328 118.008C262.672 118.685 264.664 119.622 266.305 120.82C267.919 122.044 269.156 123.49 270.016 125.156C270.875 126.823 271.305 128.633 271.305 130.586H260.445C260.445 129.883 260.328 129.232 260.094 128.633C259.859 128.008 259.508 127.448 259.039 126.953C258.388 126.302 257.503 125.781 256.383 125.391C255.289 125 253.961 124.805 252.398 124.805C251.07 124.805 249.911 124.935 248.922 125.195C247.932 125.456 247.125 125.82 246.5 126.289C245.927 126.706 245.484 127.201 245.172 127.773C244.885 128.32 244.742 128.906 244.742 129.531C244.742 130.156 244.872 130.742 245.133 131.289C245.393 131.81 245.862 132.279 246.539 132.695C247.19 133.138 248.089 133.542 249.234 133.906C250.38 134.245 251.839 134.544 253.609 134.805C256.161 135.221 258.531 135.755 260.719 136.406C262.906 137.057 264.794 137.891 266.383 138.906C267.971 139.948 269.208 141.211 270.094 142.695C271.005 144.154 271.461 145.898 271.461 147.93C271.461 149.805 271.005 151.536 270.094 153.125C269.208 154.688 267.945 156.042 266.305 157.188C264.638 158.333 262.633 159.232 260.289 159.883C257.945 160.508 255.328 160.82 252.438 160.82C249.26 160.82 246.448 160.404 244 159.57C241.578 158.737 239.547 157.643 237.906 156.289C236.266 154.961 235.016 153.451 234.156 151.758C233.323 150.039 232.906 148.32 232.906 146.602H243.258C243.336 147.747 243.648 148.737 244.195 149.57C244.742 150.378 245.445 151.029 246.305 151.523C247.164 152.044 248.141 152.422 249.234 152.656C250.354 152.891 251.5 153.008 252.672 153.008C254.078 153.008 255.302 152.891 256.344 152.656C257.411 152.396 258.284 152.057 258.961 151.641C259.612 151.224 260.094 150.742 260.406 150.195C260.745 149.648 260.914 149.049 260.914 148.398Z" fill="#002555"/>
</svg>
